<?xml version="1.0" encoding="utf-8"?>
<svg viewBox="11.405 0 662.933 575.967" xmlns="http://www.w3.org/2000/svg" xmlns:xlink="http://www.w3.org/1999/xlink">
  <defs>
    <symbol id="x" overflow="visible">
      <path d="m23.453-1.125c-1.2109 0.5-2.4688 0.875-3.7812 1.125-1.3125 0.25781-2.6836 0.39062-4.1094 0.39062-4.25 0-7.6172-0.94531-10.094-2.8438-2.4805-1.9062-3.7188-4.4844-3.7188-7.7344 0-3.2578 1.2383-5.8359 3.7188-7.7344 2.4766-1.9062 5.8438-2.8594 10.094-2.8594 1.4258 0 2.7969 0.13281 4.1094 0.39062 1.3125 0.25 2.5703 0.625 3.7812 1.125v4.2188c-1.2188-0.65625-2.4219-1.1406-3.6094-1.4531s-2.4375-0.46875-3.75-0.46875c-2.3438 0-4.1875 0.60547-5.5312 1.8125-1.3438 1.1992-2.0156 2.8555-2.0156 4.9688 0 2.1055 0.67188 3.7617 2.0156 4.9688 1.3438 1.1992 3.1875 1.7969 5.5312 1.7969 1.3125 0 2.5625-0.14844 3.75-0.45312 1.1875-0.3125 2.3906-0.80078 3.6094-1.4688z"/>
    </symbol>
    <symbol id="a" overflow="visible">
      <path d="m17.156-11.141c-0.53125-0.19531-1.0625-0.34375-1.5938-0.4375-0.53125-0.10156-1.0625-0.15625-1.5938-0.15625-1.5742 0-2.7891 0.40625-3.6406 1.2188-0.84375 0.80469-1.2656 1.9531-1.2656 3.4531v7.0625h-6.125v-15.312h6.125v2.5156c0.78125-1 1.6797-1.7266 2.7031-2.1875 1.0195-0.46875 2.2422-0.70312 3.6719-0.70312 0.19531 0 0.41406 0.011719 0.65625 0.03125 0.23828 0.011719 0.58594 0.039062 1.0469 0.078125z"/>
    </symbol>
    <symbol id="b" overflow="visible">
      <path d="m22.047-7.7031v1.4062h-14.312c0.15625 1.1484 0.67578 2.0078 1.5625 2.5781 0.88281 0.57422 2.125 0.85938 3.7188 0.85938 1.2891 0 2.6094-0.14844 3.9531-0.45312 1.3516-0.3125 2.7422-0.77344 4.1719-1.3906v3.7656c-1.4492 0.4375-2.8984 0.76562-4.3438 0.98438-1.4492 0.22656-2.8984 0.34375-4.3438 0.34375-3.4609 0-6.1523-0.70312-8.0781-2.1094-1.918-1.4062-2.875-3.3789-2.875-5.9219 0-2.5 0.94141-4.4609 2.8281-5.8906 1.8828-1.4375 4.4766-2.1562 7.7812-2.1562 3.0078 0 5.4141 0.73047 7.2188 2.1875 1.8125 1.4492 2.7188 3.3828 2.7188 5.7969zm-6.2969-1.625c0-0.92578-0.33984-1.6719-1.0156-2.2344-0.67969-0.57031-1.5625-0.85938-2.6562-0.85938-1.1797 0-2.1406 0.26562-2.8906 0.79688-0.74219 0.53125-1.1992 1.2969-1.375 2.2969z"/>
    </symbol>
    <symbol id="d" overflow="visible">
      <path d="m11.516-6.8906c-1.2734 0-2.2305 0.17188-2.875 0.51562-0.64844 0.34375-0.96875 0.85547-0.96875 1.5312 0 0.625 0.25781 1.1172 0.78125 1.4688 0.51953 0.34375 1.2383 0.51562 2.1562 0.51562 1.1562 0 2.125-0.32812 2.9062-0.98438 0.78906-0.66406 1.1875-1.4922 1.1875-2.4844v-0.5625zm9.3438-1.8438v8.7344h-6.1562v-2.2656c-0.82422 0.92969-1.75 1.6055-2.7812 2.0312-1.0234 0.41406-2.2656 0.625-3.7344 0.625-1.9805 0-3.5898-0.45703-4.8281-1.375-1.2422-0.92578-1.8594-2.1289-1.8594-3.6094 0-1.7891 0.76953-3.1016 2.3125-3.9375 1.5508-0.84375 3.9766-1.2656 7.2812-1.2656h3.6094v-0.39062c0-0.76953-0.38672-1.332-1.1562-1.6875-0.76172-0.36328-1.9492-0.54688-3.5625-0.54688-1.3125 0-2.5391 0.10547-3.6719 0.3125-1.125 0.21094-2.1719 0.52344-3.1406 0.9375v-3.7344c1.3125-0.25 2.6289-0.44141 3.9531-0.57812 1.3203-0.13281 2.6445-0.20312 3.9688-0.20312 3.4453 0 5.9375 0.54688 7.4688 1.6406 1.5312 1.0859 2.2969 2.8555 2.2969 5.3125z"/>
    </symbol>
    <symbol id="e" overflow="visible">
      <path d="m9.625-19.656v4.3438h6.2969v3.5h-6.2969v6.5c0 0.71094 0.17578 1.1875 0.53125 1.4375 0.35156 0.25 1.0508 0.375 2.0938 0.375h3.1406v3.5h-5.2344c-2.418 0-4.1328-0.39844-5.1406-1.2031-1.0117-0.8125-1.5156-2.1797-1.5156-4.1094v-6.5h-3.0312v-3.5h3.0312v-4.3438z"/>
    </symbol>
    <symbol id="l" overflow="visible">
      <path d="m15.969-13.078v-8.2031h6.1406v21.281h-6.1406v-2.2188c-0.84375 0.90625-1.7773 1.5703-2.7969 1.9844-1.0117 0.41406-2.1836 0.625-3.5156 0.625-2.3555 0-4.293-0.75-5.8125-2.25-1.5117-1.5-2.2656-3.4258-2.2656-5.7812 0-2.3633 0.75391-4.2969 2.2656-5.7969 1.5195-1.5 3.457-2.25 5.8125-2.25 1.3203 0 2.4922 0.21484 3.5156 0.64062 1.0195 0.42969 1.9531 1.0859 2.7969 1.9688zm-4.0469 9.9219c1.3125 0 2.3125-0.37891 3-1.1406 0.69531-0.76953 1.0469-1.8828 1.0469-3.3438 0-1.457-0.35156-2.5664-1.0469-3.3281-0.6875-0.76953-1.6875-1.1562-3-1.1562-1.293 0-2.2891 0.38672-2.9844 1.1562-0.6875 0.76172-1.0312 1.8711-1.0312 3.3281 0 1.4609 0.34375 2.5742 1.0312 3.3438 0.69531 0.76172 1.6914 1.1406 2.9844 1.1406z"/>
    </symbol>
    <symbol id="k" overflow="visible">
      <path d="m13.125-3.1562c1.3125 0 2.3125-0.37891 3-1.1406 0.6875-0.76953 1.0312-1.8828 1.0312-3.3438 0-1.457-0.34375-2.5664-1.0312-3.3281-0.6875-0.76953-1.6875-1.1562-3-1.1562s-2.3203 0.38672-3.0156 1.1562c-0.69922 0.77344-1.0469 1.8828-1.0469 3.3281 0 1.4492 0.34766 2.5586 1.0469 3.3281 0.69531 0.77344 1.7031 1.1562 3.0156 1.1562zm-4.0625-9.9219c0.84375-0.88281 1.7734-1.5391 2.7969-1.9688 1.0312-0.42578 2.207-0.64062 3.5312-0.64062 2.3633 0 4.3008 0.75 5.8125 2.25 1.5195 1.5 2.2812 3.4336 2.2812 5.7969 0 2.3555-0.76172 4.2812-2.2812 5.7812-1.5117 1.5-3.4492 2.25-5.8125 2.25-1.3242 0-2.5-0.21094-3.5312-0.625-1.0234-0.42578-1.9531-1.0859-2.7969-1.9844v2.2188h-6.125v-21.281h6.125z"/>
    </symbol>
    <symbol id="j" overflow="visible">
      <path d="m0.42188-15.312h6.125l5.1406 10.391 4.375-10.391h6.125l-8.0469 16.766c-0.8125 1.6953-1.7617 2.8828-2.8438 3.5625-1.0742 0.6875-2.4922 1.0312-4.25 1.0312h-3.5469v-3.2188h1.9219c1.0312 0 1.7812-0.13672 2.25-0.40625 0.47656-0.26172 0.84766-0.73047 1.1094-1.4062l0.17188-0.42188z"/>
    </symbol>
    <symbol id="i" overflow="visible">
      <path d="m0.17188-20.406h6.6094l6.7656 15.062 6.75-15.062h6.625l-9.4531 20.406h-7.8438z"/>
    </symbol>
    <symbol id="c" overflow="visible">
      <path d="m12.047-12.188c-1.3555 0-2.3906 0.39062-3.1094 1.1719-0.71094 0.78125-1.0625 1.9062-1.0625 3.375s0.35156 2.5938 1.0625 3.375c0.71875 0.77344 1.7539 1.1562 3.1094 1.1562 1.332 0 2.3516-0.38281 3.0625-1.1562 0.70703-0.78125 1.0625-1.9062 1.0625-3.375s-0.35547-2.5938-1.0625-3.375c-0.71094-0.78125-1.7305-1.1719-3.0625-1.1719zm0-3.5c3.2891 0 5.8633 0.71484 7.7188 2.1406 1.8516 1.418 2.7812 3.3867 2.7812 5.9062 0 2.5117-0.92969 4.4805-2.7812 5.9062-1.8555 1.418-4.4297 2.125-7.7188 2.125-3.3047 0-5.8867-0.70703-7.75-2.125-1.8672-1.4258-2.7969-3.3945-2.7969-5.9062 0-2.5195 0.92969-4.4883 2.7969-5.9062 1.8633-1.4258 4.4453-2.1406 7.75-2.1406z"/>
    </symbol>
    <symbol id="h" overflow="visible">
      <path d="m22.188-9.3281v9.3281h-6.1562v-7.1406c0-1.3203-0.039062-2.2344-0.10938-2.7344-0.074219-0.5-0.20312-0.86719-0.39062-1.1094-0.24219-0.3125-0.5625-0.55469-0.96875-0.73438-0.40625-0.17578-0.875-0.26562-1.4062-0.26562-1.2734 0-2.2734 0.39844-3 1.1875-0.73047 0.78125-1.0938 1.8711-1.0938 3.2656v7.5312h-6.125v-15.312h6.125v2.2344c0.91406-0.88281 1.8906-1.5391 2.9219-1.9688 1.0391-0.42578 2.1914-0.64062 3.4531-0.64062 2.207 0 3.8828 0.54688 5.0312 1.6406 1.1445 1.0859 1.7188 2.6562 1.7188 4.7188z"/>
    </symbol>
    <symbol id="g" overflow="visible">
      <path d="m2.9375-15.312h6.125v15.312h-6.125zm0-5.9688h6.125v4h-6.125z"/>
    </symbol>
    <symbol id="w" overflow="visible">
      <path d="m2.9375-21.281h6.125v11.594l7.0312-5.625h7.1094l-9.3438 7.0312 10.078 8.2812h-7.4062l-7.4688-6.3906v6.3906h-6.125z"/>
    </symbol>
    <symbol id="v" overflow="visible">
      <path d="m3.2188-20.406h6.5781v7.4375l9.4844-7.4375h7.6406l-12.297 9.6562 13.562 10.75h-8.25l-10.141-8.0469v8.0469h-6.5781z"/>
    </symbol>
    <symbol id="u" overflow="visible">
      <path d="m9.0625-2.2188v8.0469h-6.125v-21.141h6.125v2.2344c0.84375-0.88281 1.7734-1.5391 2.7969-1.9688 1.0312-0.42578 2.207-0.64062 3.5312-0.64062 2.3633 0 4.3008 0.75 5.8125 2.25 1.5195 1.5 2.2812 3.4336 2.2812 5.7969 0 2.3555-0.76172 4.2812-2.2812 5.7812-1.5117 1.5-3.4492 2.25-5.8125 2.25-1.3242 0-2.5-0.21094-3.5312-0.625-1.0234-0.42578-1.9531-1.0859-2.7969-1.9844zm4.0625-9.9062c-1.3125 0-2.3203 0.38672-3.0156 1.1562-0.69922 0.77344-1.0469 1.8828-1.0469 3.3281 0 1.4492 0.34766 2.5586 1.0469 3.3281 0.69531 0.77344 1.7031 1.1562 3.0156 1.1562s2.3125-0.37891 3-1.1406c0.6875-0.76953 1.0312-1.8828 1.0312-3.3438 0-1.457-0.34375-2.5664-1.0312-3.3281-0.6875-0.76953-1.6875-1.1562-3-1.1562z"/>
    </symbol>
    <symbol id="f" overflow="visible">
      <path d="m18.406-14.828v3.9844c-0.83594-0.45703-1.6719-0.79688-2.5156-1.0156-0.83594-0.21875-1.6992-0.32812-2.5938-0.32812-1.7109 0-3.043 0.40234-4 1.2031-0.94922 0.79297-1.4219 1.9062-1.4219 3.3438 0 1.4297 0.47266 2.543 1.4219 3.3438 0.95703 0.79297 2.2891 1.1875 4 1.1875 0.95703 0 1.8633-0.10938 2.7188-0.32812 0.86328-0.22656 1.6602-0.56641 2.3906-1.0156v4c-0.96094 0.28125-1.9336 0.48828-2.9219 0.625-0.98047 0.14453-1.9648 0.21875-2.9531 0.21875-3.4609 0-6.1641-0.70703-8.1094-2.125-1.9492-1.4141-2.9219-3.3828-2.9219-5.9062 0-2.5312 0.97266-4.5039 2.9219-5.9219 1.9453-1.4141 4.6484-2.125 8.1094-2.125 1 0 1.9844 0.074219 2.9531 0.21875 0.97656 0.13672 1.9531 0.35156 2.9219 0.64062z"/>
    </symbol>
    <symbol id="t" overflow="visible">
      <path d="m0.53125-15.312h6.1094l4.7812 10.578 4.75-10.578h6.125l-7.5312 15.312h-6.7188z"/>
    </symbol>
    <symbol id="s" overflow="visible">
      <path d="m15.531-21.281v3.2188h-3.375c-0.86719 0-1.4688 0.125-1.8125 0.375s-0.51562 0.6875-0.51562 1.3125v1.0625h5.2344v3.5h-5.2344v11.812h-6.125v-11.812h-3.0312v-3.5h3.0312v-1.0625c0-1.6641 0.57812-2.8984 1.7344-3.7031 1.1641-0.80078 2.9727-1.2031 5.4219-1.2031z"/>
    </symbol>
    <symbol id="r" overflow="visible">
      <path d="m20.672-12.766c0.78125-0.94531 1.7031-1.6719 2.7656-2.1719s2.2344-0.75 3.5156-0.75c2.1953 0 3.8672 0.54688 5.0156 1.6406 1.1562 1.0859 1.7344 2.6562 1.7344 4.7188v9.3281h-6.1562v-7.9844c0.007813-0.11328 0.015625-0.23438 0.015625-0.35938 0.007812-0.13281 0.015625-0.32031 0.015625-0.5625 0-1.082-0.19922-1.8633-0.59375-2.3438-0.39844-0.48828-1.043-0.73438-1.9375-0.73438-1.1562 0-2.0547 0.38672-2.6875 1.1562-0.63672 0.76172-0.96484 1.8672-0.98438 3.3125v7.5156h-6.1406v-7.9844c0-1.6953-0.18359-2.7852-0.54688-3.2656-0.36719-0.48828-1.0156-0.73438-1.9531-0.73438-1.1797 0-2.0859 0.38672-2.7188 1.1562-0.63672 0.76172-0.95312 1.8594-0.95312 3.2969v7.5312h-6.1562v-15.312h6.1562v2.2344c0.75-0.86328 1.6094-1.5156 2.5781-1.9531 0.97656-0.4375 2.0547-0.65625 3.2344-0.65625 1.3125 0 2.4727 0.25781 3.4844 0.76562 1.0195 0.51172 1.7891 1.2305 2.3125 2.1562z"/>
    </symbol>
    <symbol id="q" overflow="visible">
      <path d="m22.188-9.3281v9.3281h-6.1562v-7.1094c0-1.3438-0.039062-2.2656-0.10938-2.7656-0.074219-0.5-0.20312-0.86719-0.39062-1.1094-0.24219-0.3125-0.5625-0.55469-0.96875-0.73438-0.40625-0.17578-0.875-0.26562-1.4062-0.26562-1.2734 0-2.2734 0.39844-3 1.1875-0.73047 0.78125-1.0938 1.8711-1.0938 3.2656v7.5312h-6.125v-21.281h6.125v8.2031c0.91406-0.88281 1.8906-1.5391 2.9219-1.9688 1.0391-0.42578 2.1914-0.64062 3.4531-0.64062 2.207 0 3.8828 0.54688 5.0312 1.6406 1.1445 1.0859 1.7188 2.6562 1.7188 4.7188z"/>
    </symbol>
    <symbol id="p" overflow="visible">
      <path d="m3.2188-20.406h7.3438l9.2812 14v-14h6.2344v20.406h-7.3438l-9.2812-14v14h-6.2344z"/>
    </symbol>
    <symbol id="o" overflow="visible">
      <path d="m2.7344-5.9688v-9.3438h6.1562v1.5312c0 0.83594-0.007813 1.875-0.015625 3.125-0.011719 1.25-0.015625 2.0859-0.015625 2.5 0 1.2422 0.035156 2.1328 0.10938 2.6719 0.082031 0.54297 0.21875 0.93359 0.40625 1.1719 0.25781 0.32422 0.58594 0.57422 0.98438 0.75 0.40625 0.16797 0.875 0.25 1.4062 0.25 1.2695 0 2.2695-0.39062 3-1.1719 0.72656-0.78125 1.0938-1.8672 1.0938-3.2656v-7.5625h6.125v15.312h-6.125v-2.2188c-0.92969 0.89844-1.9062 1.5586-2.9375 1.9844-1.0312 0.41406-2.168 0.625-3.4062 0.625-2.2109 0-3.8906-0.53906-5.0469-1.625-1.1562-1.082-1.7344-2.6602-1.7344-4.7344z"/>
    </symbol>
    <symbol id="n" overflow="visible">
      <path d="m3.2188-20.406h10.922c3.2383 0 5.7266 0.57812 7.4688 1.7344 1.7383 1.1484 2.6094 2.7891 2.6094 4.9219 0 2.1367-0.87109 3.7812-2.6094 4.9375-1.7422 1.1562-4.2305 1.7344-7.4688 1.7344h-4.3438v7.0781h-6.5781zm6.5781 3.8125v5.7031h3.6406c1.2695 0 2.2539-0.25 2.9531-0.75 0.69531-0.5 1.0469-1.2031 1.0469-2.1094 0-0.91406-0.35156-1.6172-1.0469-2.1094-0.69922-0.48828-1.6836-0.73438-2.9531-0.73438z"/>
    </symbol>
    <symbol id="m" overflow="visible">
      <path d="m2.9375-15.312h6.125v15.031c0 2.0508-0.62109 3.6172-1.8594 4.7031-1.2305 1.082-3.0117 1.625-5.3438 1.625h-3.0156v-3.2188h1.0469c1.1641 0 1.9609-0.21094 2.3906-0.625 0.4375-0.41797 0.65625-1.2461 0.65625-2.4844zm0-5.9688h6.125v4h-6.125z"/>
    </symbol>
  </defs>
  <g style="" transform="matrix(0.968071, 0.003613, -0.004599, 1.165784, 6.189906, -40.882313)">
    <path d="m548.45 120.68c-54.875-43.879-121.02-65.812-198.45-65.801-77.652-0.003906-144.04 21.93-199.15 65.801-54.84 44.09-82.258 97.199-82.25 159.32-0.019531 61.941 27.398 114.86 82.25 158.76 55.109 44.066 121.49 66.094 199.15 66.078 77.426 0.027344 143.57-22 198.45-66.078 55.098-43.902 82.633-96.82 82.602-158.76 0.019531-62.125-27.516-115.23-82.602-159.32m-260.05 102.76-0.34766 0.27734c-0.1875 0.097656-0.42188 0.097656-0.69922 0l1.0469-0.27734m5.6016 12.039 0.35156-0.28125c15.391-12.035 33.938-18.105 55.648-18.199 21.645 0.10938 40.078 6.2695 55.301 18.48 15.492 12.363 23.191 27.203 23.098 44.52 0.09375 17.316-7.6055 32.062-23.098 44.238-15.223 12.398-33.656 18.559-55.301 18.48-21.648 0.078125-40.195-6.082-55.648-18.48-15.262-12.176-22.965-26.922-23.102-44.238 0.12109-17.367 7.7031-32.207 22.75-44.52m-5.6016 1.6797c0.17187 0.09375 0.28516 0.09375 0.35156 0l-0.69922 0.28125 0.34766-0.28125m-180.95 56.84h148.05c3.4297 15.227 12.297 28.57 26.602 40.039 18.844 15.047 41.477 22.512 67.898 22.402 26.418 0.10938 48.938-7.3555 67.551-22.402 14.535-11.469 23.402-24.812 26.598-40.039h147.7c-3.7773 47.438-27.344 88.41-70.703 122.92-47.324 38.051-104.38 57.094-171.15 57.117-67.012-0.015624-124.3-19.055-171.85-57.117-43.156-34.512-66.723-75.484-70.699-122.92m279.65-44.238c-10.105-8.0586-22.473-12.07-37.102-12.043-14.582 0.003906-27.066 4.0156-37.449 12.043l-0.35156 0.27734c-10.031 8.3086-15.047 18.297-15.051 29.961-0.035157 11.703 4.9805 21.598 15.051 29.68 10.543 8.4062 23.145 12.605 37.801 12.602 14.562-0.011719 26.93-4.2109 37.102-12.602 10.488-8.1367 15.738-18.031 15.75-29.68 0.007813-11.727-5.2422-21.805-15.75-30.238z" style="fill: rgb(255, 255, 255);"/>
    <use transform="matrix(1, 0, 0, 1, 0, 644)" xlink:href="#x"/>
    <use transform="matrix(1, 0, 0, 1, 25.6875, 644)" xlink:href="#a"/>
    <use transform="matrix(1, 0, 0, 1, 42.9453125, 644)" xlink:href="#b"/>
    <use transform="matrix(1, 0, 0, 1, 66.68359375, 644)" xlink:href="#d"/>
    <use transform="matrix(1, 0, 0, 1, 90.3046875, 644)" xlink:href="#e"/>
    <use transform="matrix(1, 0, 0, 1, 107.03515625, 644)" xlink:href="#b"/>
    <use transform="matrix(1, 0, 0, 1, 130.7734375, 644)" xlink:href="#l"/>
    <use transform="matrix(1, 0, 0, 1, 168.01171875, 644)" xlink:href="#k"/>
    <use transform="matrix(1, 0, 0, 1, 193.0625, 644)" xlink:href="#j"/>
    <use transform="matrix(1, 0, 0, 1, 228.0625, 644)" xlink:href="#i"/>
    <use transform="matrix(1, 0, 0, 1, 255.15234375, 644)" xlink:href="#b"/>
    <use transform="matrix(1, 0, 0, 1, 278.890625, 644)" xlink:href="#a"/>
    <use transform="matrix(1, 0, 0, 1, 296.1484375, 644)" xlink:href="#c"/>
    <use transform="matrix(1, 0, 0, 1, 320.1953125, 644)" xlink:href="#h"/>
    <use transform="matrix(1, 0, 0, 1, 345.11328125, 644)" xlink:href="#g"/>
    <use transform="matrix(1, 0, 0, 1, 357.109375, 644)" xlink:href="#w"/>
    <use transform="matrix(1, 0, 0, 1, 380.38671875, 644)" xlink:href="#d"/>
    <use transform="matrix(1, 0, 0, 1, 416.1875, 644)" xlink:href="#v"/>
    <use transform="matrix(1, 0, 0, 1, 443.3125, 644)" xlink:href="#a"/>
    <use transform="matrix(1, 0, 0, 1, 460.5703125, 644)" xlink:href="#u"/>
    <use transform="matrix(1, 0, 0, 1, 485.625, 644)" xlink:href="#f"/>
    <use transform="matrix(1, 0, 0, 1, 506.37109375, 644)" xlink:href="#g"/>
    <use transform="matrix(1, 0, 0, 1, 518.3671875, 644)" xlink:href="#d"/>
    <use transform="matrix(1, 0, 0, 1, 541.98828125, 644)" xlink:href="#a"/>
    <use transform="matrix(1, 0, 0, 1, 559.25, 644)" xlink:href="#c"/>
    <use transform="matrix(1, 0, 0, 1, 583.29296875, 644)" xlink:href="#t"/>
    <use transform="matrix(1, 0, 0, 1, 606.109375, 644)" xlink:href="#d"/>
    <use transform="matrix(1, 0, 0, 1, 0, 672)" xlink:href="#s"/>
    <use transform="matrix(1, 0, 0, 1, 15.226561546325684, 672)" xlink:href="#a"/>
    <use transform="matrix(1, 0, 0, 1, 32.48828125, 672)" xlink:href="#c"/>
    <use transform="matrix(1, 0, 0, 1, 56.53125, 672)" xlink:href="#r"/>
    <use transform="matrix(1, 0, 0, 1, 105.1875, 672)" xlink:href="#e"/>
    <use transform="matrix(1, 0, 0, 1, 121.91796875, 672)" xlink:href="#q"/>
    <use transform="matrix(1, 0, 0, 1, 146.8359375, 672)" xlink:href="#b"/>
    <use transform="matrix(1, 0, 0, 1, 182.7578125, 672)" xlink:href="#p"/>
    <use transform="matrix(1, 0, 0, 1, 212.05078125, 672)" xlink:href="#c"/>
    <use transform="matrix(1, 0, 0, 1, 236.09765625, 672)" xlink:href="#o"/>
    <use transform="matrix(1, 0, 0, 1, 261.01171875, 672)" xlink:href="#h"/>
    <use transform="matrix(1, 0, 0, 1, 298.11328125, 672)" xlink:href="#n"/>
    <use transform="matrix(1, 0, 0, 1, 323.765625, 672)" xlink:href="#a"/>
    <use transform="matrix(1, 0, 0, 1, 341.02734375, 672)" xlink:href="#c"/>
    <use transform="matrix(1, 0, 0, 1, 365.07421875, 672)" xlink:href="#m"/>
    <use transform="matrix(1, 0, 0, 1, 377.0703125, 672)" xlink:href="#b"/>
    <use transform="matrix(1, 0, 0, 1, 400.80859375, 672)" xlink:href="#f"/>
    <use transform="matrix(1, 0, 0, 1, 421.5546875, 672)" xlink:href="#e"/>
  </g>
</svg>